# xmcd
#
# Track frame offsets:
#	150
#	15208
#	33740
#	45518
#	61858
#	83240
#	98230
#	113870
#	130720
#	147525
#
# Disc length: 2283 seconds
# Revision: 6
# Processed by: cddbd v1.5.2PL0 Copyright (c) Steve Scherf et al.
# Submitted via: dBpowerAMP V12.0
#
DISCID=7d08e90a
DTITLE=Emmylou Harris - Pieces of the Sky
DYEAR=1975
DGENRE=Country
TTITLE0=Bluebird Wine
TTITLE1=Too Far Gone
TTITLE2=If I Could Only Win Your Love
TTITLE3=Boulder to Birmingham
TTITLE4=Before Believing
TTITLE5=Bottle Let Me Down
TTITLE6=Sleepless Nights
TTITLE7=Coat of Many Colors
TTITLE8=For No One
TTITLE9=Queen of the Silver Dollar
EXTD=
EXTT0=
EXTT1=
EXTT2=
EXTT3=
EXTT4=
EXTT5=
EXTT6=
EXTT7=
EXTT8=
EXTT9=
PLAYORDER=
